<svg xmlns="http://www.w3.org/2000/svg" width="129.22" height="145.42" viewBox="0 0 129.22 145.42">
  <path id="html-5_1_" data-name="html-5 (1)" d="M27.309,4.814,36.9,125.556a4.481,4.481,0,0,0,3.154,3.909l50.478,15.746a4.612,4.612,0,0,0,2.744,0l50.478-15.746a4.481,4.481,0,0,0,3.154-3.909L156.5,4.814A4.5,4.5,0,0,0,151.975,0H31.834A4.5,4.5,0,0,0,27.309,4.814ZM131.9,42.276H69.382l1.887,17.118H130.54l-3.877,48.8L91.9,119.037,57.146,108.195,55.121,82.7H73.365V95.205l19.028,5.024,18.914-5.024,1.467-19.931H54.531L50.664,26.6h82.481Z" transform="translate(-27.295)" fill="#fc490b"/>
</svg>
