<svg xmlns="http://www.w3.org/2000/svg" xmlns:xlink="http://www.w3.org/1999/xlink" width="900" height="768" viewBox="0 0 900 768">
  <defs>
    <linearGradient id="linear-gradient" x1="0.117" y1="0.522" x2="0.967" y2="0.563" gradientUnits="objectBoundingBox">
      <stop offset="0" stop-color="#fff"/>
      <stop offset="0.325" stop-color="#dac8c8" stop-opacity="0.631"/>
      <stop offset="1" stop-color="gray"/>
    </linearGradient>
    <linearGradient id="linear-gradient-2" x1="0.129" y1="0.177" x2="0.907" y2="0.781" gradientUnits="objectBoundingBox">
      <stop offset="0" stop-color="#2ce3e3"/>
      <stop offset="0.354" stop-color="#24b8b8"/>
      <stop offset="0.576" stop-color="#1f9f9f"/>
      <stop offset="0.799" stop-color="#1a8888"/>
      <stop offset="1" stop-color="#167272"/>
    </linearGradient>
    <clipPath id="clip-Artboard_1">
      <rect width="900" height="768"/>
    </clipPath>
  </defs>
  <g id="Artboard_1" data-name="Artboard – 1" clip-path="url(#clip-Artboard_1)">
    <rect width="900" height="768" fill="#fff"/>
    <rect id="Rectangle_1" data-name="Rectangle 1" width="685" height="1124" transform="translate(829.015 -94.133) rotate(38)" fill="url(#linear-gradient)"/>
    <g id="Ellipse_1" data-name="Ellipse 1" transform="translate(147 57)" stroke="#707070" stroke-width="1" fill="url(#linear-gradient-2)">
      <ellipse cx="324" cy="315.5" rx="324" ry="315.5" stroke="none"/>
      <ellipse cx="324" cy="315.5" rx="323.5" ry="315" fill="none"/>
    </g>
    <g id="Ellipse_5" data-name="Ellipse 5" transform="translate(147 57)" stroke="#707070" stroke-width="1" fill="url(#linear-gradient-2)">
      <ellipse cx="324" cy="315.5" rx="324" ry="315.5" stroke="none"/>
      <ellipse cx="324" cy="315.5" rx="323.5" ry="315" fill="none"/>
    </g>
    <g id="Ellipse_6" data-name="Ellipse 6" transform="translate(147 57)" stroke="#707070" stroke-width="1" fill="url(#linear-gradient-2)">
      <ellipse cx="324" cy="315.5" rx="324" ry="315.5" stroke="none"/>
      <ellipse cx="324" cy="315.5" rx="323.5" ry="315" fill="none"/>
    </g>
    <g id="Ellipse_7" data-name="Ellipse 7" transform="translate(147 57)" stroke="#707070" stroke-width="1" fill="url(#linear-gradient-2)">
      <ellipse cx="324" cy="315.5" rx="324" ry="315.5" stroke="none"/>
      <ellipse cx="324" cy="315.5" rx="323.5" ry="315" fill="none"/>
    </g>
    <g id="Ellipse_8" data-name="Ellipse 8" transform="translate(147 57)" stroke="#707070" stroke-width="1" fill="url(#linear-gradient-2)">
      <ellipse cx="324" cy="315.5" rx="324" ry="315.5" stroke="none"/>
      <ellipse cx="324" cy="315.5" rx="323.5" ry="315" fill="none"/>
    </g>
    <g id="Ellipse_9" data-name="Ellipse 9" transform="translate(147 57)" stroke="#707070" stroke-width="1" fill="url(#linear-gradient-2)">
      <ellipse cx="324" cy="315.5" rx="324" ry="315.5" stroke="none"/>
      <ellipse cx="324" cy="315.5" rx="323.5" ry="315" fill="none"/>
    </g>
    <g id="Ellipse_10" data-name="Ellipse 10" transform="translate(147 57)" stroke="#707070" stroke-width="1" fill="url(#linear-gradient-2)">
      <ellipse cx="324" cy="315.5" rx="324" ry="315.5" stroke="none"/>
      <ellipse cx="324" cy="315.5" rx="323.5" ry="315" fill="none"/>
    </g>
    <g id="Ellipse_11" data-name="Ellipse 11" transform="translate(147 57)" stroke="#707070" stroke-width="1" fill="url(#linear-gradient-2)">
      <ellipse cx="324" cy="315.5" rx="324" ry="315.5" stroke="none"/>
      <ellipse cx="324" cy="315.5" rx="323.5" ry="315" fill="none"/>
    </g>
    <g id="Ellipse_12" data-name="Ellipse 12" transform="translate(147 57)" stroke="#707070" stroke-width="1" fill="url(#linear-gradient-2)">
      <ellipse cx="324" cy="315.5" rx="324" ry="315.5" stroke="none"/>
      <ellipse cx="324" cy="315.5" rx="323.5" ry="315" fill="none"/>
    </g>
    <g id="Ellipse_13" data-name="Ellipse 13" transform="translate(147 57)" stroke="#707070" stroke-width="1" fill="url(#linear-gradient-2)">
      <ellipse cx="324" cy="315.5" rx="324" ry="315.5" stroke="none"/>
      <ellipse cx="324" cy="315.5" rx="323.5" ry="315" fill="none"/>
    </g>
    <g id="Ellipse_14" data-name="Ellipse 14" transform="translate(147 57)" stroke="#707070" stroke-width="1" fill="url(#linear-gradient-2)">
      <ellipse cx="324" cy="315.5" rx="324" ry="315.5" stroke="none"/>
      <ellipse cx="324" cy="315.5" rx="323.5" ry="315" fill="none"/>
    </g>
    <g id="Ellipse_15" data-name="Ellipse 15" transform="translate(147 57)" stroke="#707070" stroke-width="1" fill="url(#linear-gradient-2)">
      <ellipse cx="324" cy="315.5" rx="324" ry="315.5" stroke="none"/>
      <ellipse cx="324" cy="315.5" rx="323.5" ry="315" fill="none"/>
    </g>
    <g id="Ellipse_16" data-name="Ellipse 16" transform="translate(147 57)" stroke="#707070" stroke-width="1" fill="url(#linear-gradient-2)">
      <ellipse cx="324" cy="315.5" rx="324" ry="315.5" stroke="none"/>
      <ellipse cx="324" cy="315.5" rx="323.5" ry="315" fill="none"/>
    </g>
    <g id="Ellipse_17" data-name="Ellipse 17" transform="translate(147 57)" stroke="#707070" stroke-width="1" fill="url(#linear-gradient-2)">
      <ellipse cx="324" cy="315.5" rx="324" ry="315.5" stroke="none"/>
      <ellipse cx="324" cy="315.5" rx="323.5" ry="315" fill="none"/>
    </g>
    <g id="Ellipse_18" data-name="Ellipse 18" transform="translate(147 57)" stroke="#707070" stroke-width="1" fill="url(#linear-gradient-2)">
      <ellipse cx="324" cy="315.5" rx="324" ry="315.5" stroke="none"/>
      <ellipse cx="324" cy="315.5" rx="323.5" ry="315" fill="none"/>
    </g>
    <g id="Ellipse_19" data-name="Ellipse 19" transform="translate(147 57)" stroke="#707070" stroke-width="1" fill="url(#linear-gradient-2)">
      <ellipse cx="324" cy="315.5" rx="324" ry="315.5" stroke="none"/>
      <ellipse cx="324" cy="315.5" rx="323.5" ry="315" fill="none"/>
    </g>
    <g id="Ellipse_20" data-name="Ellipse 20" transform="translate(147 57)" stroke="#707070" stroke-width="1" fill="url(#linear-gradient-2)">
      <ellipse cx="324" cy="315.5" rx="324" ry="315.5" stroke="none"/>
      <ellipse cx="324" cy="315.5" rx="323.5" ry="315" fill="none"/>
    </g>
    <g id="Ellipse_21" data-name="Ellipse 21" transform="translate(147 57)" stroke="#707070" stroke-width="1" fill="url(#linear-gradient-2)">
      <ellipse cx="324" cy="315.5" rx="324" ry="315.5" stroke="none"/>
      <ellipse cx="324" cy="315.5" rx="323.5" ry="315" fill="none"/>
    </g>
    <ellipse id="Ellipse_22" data-name="Ellipse 22" cx="324" cy="315.5" rx="324" ry="315.5" transform="translate(147 57)" fill="url(#linear-gradient-2)"/>
    <ellipse id="Ellipse_4" data-name="Ellipse 4" cx="74.5" cy="47" rx="74.5" ry="47" transform="translate(474.22 -26.923) rotate(41)" fill="#fff"/>
    <ellipse id="Ellipse_23" data-name="Ellipse 23" cx="96" cy="94.5" rx="96" ry="94.5" transform="translate(110 82)" fill="#2ad5d5"/>
    <ellipse id="Ellipse_3" data-name="Ellipse 3" cx="58.5" cy="51.5" rx="58.5" ry="51.5" transform="translate(99 220)" fill="#fff"/>
    <ellipse id="Ellipse_2" data-name="Ellipse 2" cx="81" cy="51.5" rx="81" ry="51.5" transform="matrix(0.985, 0.174, -0.174, 0.985, 253.173, 43.717)" fill="#fff"/>
    <ellipse id="Ellipse_45" data-name="Ellipse 45" cx="81" cy="51.5" rx="81" ry="51.5" transform="matrix(0.985, 0.174, -0.174, 0.985, 253.173, 43.717)" fill="#fff"/>
    <ellipse id="Ellipse_46" data-name="Ellipse 46" cx="81" cy="51.5" rx="81" ry="51.5" transform="matrix(0.985, 0.174, -0.174, 0.985, 253.173, 43.717)" fill="#fff"/>
    <ellipse id="Ellipse_47" data-name="Ellipse 47" cx="81" cy="51.5" rx="81" ry="51.5" transform="matrix(0.985, 0.174, -0.174, 0.985, 253.173, 43.717)" fill="#fff"/>
    <ellipse id="Ellipse_48" data-name="Ellipse 48" cx="81" cy="51.5" rx="81" ry="51.5" transform="matrix(0.985, 0.174, -0.174, 0.985, 253.173, 43.717)" fill="#fff"/>
    <ellipse id="Ellipse_49" data-name="Ellipse 49" cx="81" cy="51.5" rx="81" ry="51.5" transform="matrix(0.985, 0.174, -0.174, 0.985, 253.173, 43.717)" fill="#fff"/>
    <ellipse id="Ellipse_50" data-name="Ellipse 50" cx="81" cy="51.5" rx="81" ry="51.5" transform="matrix(0.985, 0.174, -0.174, 0.985, 253.173, 43.717)" fill="#fff"/>
    <ellipse id="Ellipse_51" data-name="Ellipse 51" cx="81" cy="51.5" rx="81" ry="51.5" transform="matrix(0.985, 0.174, -0.174, 0.985, 253.173, 43.717)" fill="#fff"/>
    <ellipse id="Ellipse_52" data-name="Ellipse 52" cx="81" cy="51.5" rx="81" ry="51.5" transform="matrix(0.985, 0.174, -0.174, 0.985, 253.173, 43.717)" fill="#fff"/>
    <ellipse id="Ellipse_53" data-name="Ellipse 53" cx="81" cy="51.5" rx="81" ry="51.5" transform="matrix(0.985, 0.174, -0.174, 0.985, 253.173, 43.717)" fill="#fff"/>
    <ellipse id="Ellipse_54" data-name="Ellipse 54" cx="81" cy="51.5" rx="81" ry="51.5" transform="matrix(0.985, 0.174, -0.174, 0.985, 253.173, 43.717)" fill="#fff"/>
    <ellipse id="Ellipse_55" data-name="Ellipse 55" cx="81" cy="51.5" rx="81" ry="51.5" transform="matrix(0.985, 0.174, -0.174, 0.985, 253.173, 43.717)" fill="#fff"/>
    <ellipse id="Ellipse_56" data-name="Ellipse 56" cx="81" cy="51.5" rx="81" ry="51.5" transform="matrix(0.985, 0.174, -0.174, 0.985, 253.173, 43.717)" fill="#fff"/>
    <ellipse id="Ellipse_57" data-name="Ellipse 57" cx="81" cy="51.5" rx="81" ry="51.5" transform="matrix(0.985, 0.174, -0.174, 0.985, 253.173, 43.717)" fill="#fff"/>
    <ellipse id="Ellipse_58" data-name="Ellipse 58" cx="81" cy="51.5" rx="81" ry="51.5" transform="matrix(0.985, 0.174, -0.174, 0.985, 253.173, 43.717)" fill="#fff"/>
    <ellipse id="Ellipse_59" data-name="Ellipse 59" cx="81" cy="51.5" rx="81" ry="51.5" transform="matrix(0.985, 0.174, -0.174, 0.985, 253.173, 43.717)" fill="#fff"/>
    <ellipse id="Ellipse_60" data-name="Ellipse 60" cx="81" cy="51.5" rx="81" ry="51.5" transform="matrix(0.985, 0.174, -0.174, 0.985, 253.173, 43.717)" fill="#fff"/>
    <ellipse id="Ellipse_61" data-name="Ellipse 61" cx="81" cy="51.5" rx="81" ry="51.5" transform="matrix(0.985, 0.174, -0.174, 0.985, 253.173, 43.717)" fill="#fff"/>
    <ellipse id="Ellipse_62" data-name="Ellipse 62" cx="81" cy="51.5" rx="81" ry="51.5" transform="matrix(0.985, 0.174, -0.174, 0.985, 253.173, 43.717)" fill="#fff"/>
    <ellipse id="Ellipse_63" data-name="Ellipse 63" cx="81" cy="51.5" rx="81" ry="51.5" transform="matrix(0.985, 0.174, -0.174, 0.985, 253.173, 43.717)" fill="#fff"/>
    <ellipse id="Ellipse_64" data-name="Ellipse 64" cx="81" cy="51.5" rx="81" ry="51.5" transform="matrix(0.985, 0.174, -0.174, 0.985, 253.173, 43.717)" fill="#fff"/>
    <ellipse id="Ellipse_65" data-name="Ellipse 65" cx="81" cy="51.5" rx="81" ry="51.5" transform="matrix(0.985, 0.174, -0.174, 0.985, 253.173, 43.717)" fill="#fff"/>
    <ellipse id="Ellipse_66" data-name="Ellipse 66" cx="81" cy="51.5" rx="81" ry="51.5" transform="matrix(0.985, 0.174, -0.174, 0.985, 253.173, 43.717)" fill="#fff"/>
    <ellipse id="Ellipse_67" data-name="Ellipse 67" cx="81" cy="51.5" rx="81" ry="51.5" transform="matrix(0.985, 0.174, -0.174, 0.985, 253.173, 43.717)" fill="#fff"/>
    <ellipse id="Ellipse_68" data-name="Ellipse 68" cx="81" cy="51.5" rx="81" ry="51.5" transform="matrix(0.985, 0.174, -0.174, 0.985, 253.173, 43.717)" fill="#fff"/>
    <ellipse id="Ellipse_69" data-name="Ellipse 69" cx="81" cy="51.5" rx="81" ry="51.5" transform="matrix(0.985, 0.174, -0.174, 0.985, 253.173, 43.717)" fill="#fff"/>
    <ellipse id="Ellipse_70" data-name="Ellipse 70" cx="81" cy="51.5" rx="81" ry="51.5" transform="matrix(0.985, 0.174, -0.174, 0.985, 253.173, 43.717)" fill="#fff"/>
    <ellipse id="Ellipse_71" data-name="Ellipse 71" cx="81" cy="51.5" rx="81" ry="51.5" transform="matrix(0.985, 0.174, -0.174, 0.985, 253.173, 43.717)" fill="#fff"/>
    <ellipse id="Ellipse_72" data-name="Ellipse 72" cx="81" cy="51.5" rx="81" ry="51.5" transform="matrix(0.985, 0.174, -0.174, 0.985, 253.173, 43.717)" fill="#fff"/>
    <ellipse id="Ellipse_73" data-name="Ellipse 73" cx="81" cy="51.5" rx="81" ry="51.5" transform="matrix(0.985, 0.174, -0.174, 0.985, 253.173, 43.717)" fill="#fff"/>
    <ellipse id="Ellipse_74" data-name="Ellipse 74" cx="81" cy="51.5" rx="81" ry="51.5" transform="matrix(0.985, 0.174, -0.174, 0.985, 253.173, 43.717)" fill="#fff"/>
    <ellipse id="Ellipse_75" data-name="Ellipse 75" cx="81" cy="51.5" rx="81" ry="51.5" transform="matrix(0.985, 0.174, -0.174, 0.985, 265.173, 43.717)" fill="#fff"/>
    <ellipse id="Ellipse_77" data-name="Ellipse 77" cx="81" cy="44.5" rx="81" ry="44.5" transform="translate(255.244 70.996)" fill="#fff"/>
    <ellipse id="Ellipse_76" data-name="Ellipse 76" cx="81" cy="44" rx="81" ry="44" transform="matrix(0.985, 0.174, -0.174, 0.985, 276.569, 58.489)" fill="#fff"/>
    <ellipse id="Ellipse_24" data-name="Ellipse 24" cx="76.5" cy="51.5" rx="76.5" ry="51.5" transform="translate(99 362)" fill="#fff"/>
    <ellipse id="Ellipse_27" data-name="Ellipse 27" cx="76.5" cy="51.5" rx="76.5" ry="51.5" transform="translate(99 362)" fill="#fff"/>
    <ellipse id="Ellipse_25" data-name="Ellipse 25" cx="28" cy="26.5" rx="28" ry="26.5" transform="translate(43 44)" fill="#2ad5d5"/>
    <ellipse id="Ellipse_78" data-name="Ellipse 78" cx="28" cy="26.5" rx="28" ry="26.5" transform="translate(43 44)" fill="#2ad5d5"/>
    <ellipse id="Ellipse_79" data-name="Ellipse 79" cx="28" cy="26.5" rx="28" ry="26.5" transform="translate(43 44)" fill="#2ad5d5"/>
    <ellipse id="Ellipse_80" data-name="Ellipse 80" cx="28" cy="26.5" rx="28" ry="26.5" transform="translate(43 44)" fill="#2ad5d5"/>
    <ellipse id="Ellipse_81" data-name="Ellipse 81" cx="28" cy="26.5" rx="28" ry="26.5" transform="translate(43 44)" fill="#2ad5d5"/>
    <ellipse id="Ellipse_82" data-name="Ellipse 82" cx="28" cy="26.5" rx="28" ry="26.5" transform="translate(43 44)" fill="#2ad5d5"/>
    <ellipse id="Ellipse_83" data-name="Ellipse 83" cx="28" cy="26.5" rx="28" ry="26.5" transform="translate(43 44)" fill="#2ad5d5"/>
    <ellipse id="Ellipse_84" data-name="Ellipse 84" cx="28" cy="26.5" rx="28" ry="26.5" transform="translate(43 44)" fill="#2ad5d5"/>
    <ellipse id="Ellipse_85" data-name="Ellipse 85" cx="28" cy="26.5" rx="28" ry="26.5" transform="translate(43 44)" fill="#2ad5d5"/>
    <ellipse id="Ellipse_86" data-name="Ellipse 86" cx="28" cy="26.5" rx="28" ry="26.5" transform="translate(43 44)" fill="#2ad5d5"/>
    <ellipse id="Ellipse_87" data-name="Ellipse 87" cx="38.5" cy="26.5" rx="38.5" ry="26.5" transform="matrix(0.799, 0.602, -0.602, 0.799, 48.029, 15.672)" fill="#2ad5d5"/>
    <ellipse id="Ellipse_88" data-name="Ellipse 88" cx="28" cy="26.5" rx="28" ry="26.5" transform="translate(19 121)" fill="#2ad5d5"/>
    <ellipse id="Ellipse_90" data-name="Ellipse 90" cx="28" cy="26.5" rx="28" ry="26.5" transform="translate(19 121)" fill="#2ad5d5"/>
    <ellipse id="Ellipse_91" data-name="Ellipse 91" cx="28" cy="26.5" rx="28" ry="26.5" transform="translate(19 121)" fill="#2ad5d5"/>
    <ellipse id="Ellipse_92" data-name="Ellipse 92" cx="28" cy="26.5" rx="28" ry="26.5" transform="translate(19 121)" fill="#2ad5d5"/>
    <ellipse id="Ellipse_93" data-name="Ellipse 93" cx="28" cy="26.5" rx="28" ry="26.5" transform="translate(19 121)" fill="#2ad5d5"/>
    <ellipse id="Ellipse_94" data-name="Ellipse 94" cx="28" cy="26.5" rx="28" ry="26.5" transform="translate(19 121)" fill="#2ad5d5"/>
    <ellipse id="Ellipse_95" data-name="Ellipse 95" cx="28" cy="26.5" rx="28" ry="26.5" transform="translate(19 121)" fill="#2ad5d5"/>
    <ellipse id="Ellipse_96" data-name="Ellipse 96" cx="28" cy="26.5" rx="28" ry="26.5" transform="translate(19 121)" fill="#2ad5d5"/>
    <ellipse id="Ellipse_97" data-name="Ellipse 97" cx="28" cy="26.5" rx="28" ry="26.5" transform="translate(19 121)" fill="#2ad5d5"/>
    <ellipse id="Ellipse_98" data-name="Ellipse 98" cx="28" cy="26.5" rx="28" ry="26.5" transform="translate(19 121)" fill="#2ad5d5"/>
    <ellipse id="Ellipse_99" data-name="Ellipse 99" cx="28" cy="26.5" rx="28" ry="26.5" transform="translate(19 121)" fill="#2ad5d5"/>
    <ellipse id="Ellipse_100" data-name="Ellipse 100" cx="28" cy="26.5" rx="28" ry="26.5" transform="translate(19 121)" fill="#2ad5d5"/>
    <ellipse id="Ellipse_101" data-name="Ellipse 101" cx="28" cy="26.5" rx="28" ry="26.5" transform="translate(19 121)" fill="#2ad5d5"/>
    <ellipse id="Ellipse_102" data-name="Ellipse 102" cx="28" cy="26.5" rx="28" ry="26.5" transform="translate(19 121)" fill="#2ad5d5"/>
    <ellipse id="Ellipse_103" data-name="Ellipse 103" cx="28" cy="26.5" rx="28" ry="26.5" transform="translate(137 18)" fill="#2ad5d5"/>
    <ellipse id="Ellipse_89" data-name="Ellipse 89" cx="14" cy="16" rx="14" ry="16" transform="translate(486 55)" fill="#2ad5d5"/>
    <g id="Ellipse_26" data-name="Ellipse 26" transform="translate(75 280)" fill="#fff" stroke="#707070" stroke-width="1">
      <ellipse cx="24" cy="18" rx="24" ry="18" stroke="none"/>
      <ellipse cx="24" cy="18" rx="23.5" ry="17.5" fill="none"/>
    </g>
    <g id="Ellipse_28" data-name="Ellipse 28" transform="translate(75 280)" fill="#fff" stroke="#707070" stroke-width="1">
      <ellipse cx="24" cy="18" rx="24" ry="18" stroke="none"/>
      <ellipse cx="24" cy="18" rx="23.5" ry="17.5" fill="none"/>
    </g>
    <g id="Ellipse_29" data-name="Ellipse 29" transform="translate(75 280)" fill="#2ad5d5" stroke="#707070" stroke-width="1">
      <ellipse cx="24" cy="18" rx="24" ry="18" stroke="none"/>
      <ellipse cx="24" cy="18" rx="23.5" ry="17.5" fill="none"/>
    </g>
    <g id="Ellipse_30" data-name="Ellipse 30" transform="translate(75 280)" fill="#2ad5d5" stroke="#707070" stroke-width="1">
      <ellipse cx="24" cy="18" rx="24" ry="18" stroke="none"/>
      <ellipse cx="24" cy="18" rx="23.5" ry="17.5" fill="none"/>
    </g>
    <g id="Ellipse_31" data-name="Ellipse 31" transform="translate(75 280)" fill="#2ad5d5" stroke="#707070" stroke-width="1">
      <ellipse cx="24" cy="18" rx="24" ry="18" stroke="none"/>
      <ellipse cx="24" cy="18" rx="23.5" ry="17.5" fill="none"/>
    </g>
    <g id="Ellipse_32" data-name="Ellipse 32" transform="translate(75 280)" fill="#2ad5d5" stroke="#707070" stroke-width="1">
      <ellipse cx="24" cy="18" rx="24" ry="18" stroke="none"/>
      <ellipse cx="24" cy="18" rx="23.5" ry="17.5" fill="none"/>
    </g>
    <g id="Ellipse_33" data-name="Ellipse 33" transform="translate(75 280)" fill="#2ad5d5" stroke="#707070" stroke-width="1">
      <ellipse cx="24" cy="18" rx="24" ry="18" stroke="none"/>
      <ellipse cx="24" cy="18" rx="23.5" ry="17.5" fill="none"/>
    </g>
    <g id="Ellipse_34" data-name="Ellipse 34" transform="translate(75 280)" fill="#2ad5d5" stroke="#707070" stroke-width="1">
      <ellipse cx="24" cy="18" rx="24" ry="18" stroke="none"/>
      <ellipse cx="24" cy="18" rx="23.5" ry="17.5" fill="none"/>
    </g>
    <g id="Ellipse_35" data-name="Ellipse 35" transform="translate(75 280)" fill="#2ad5d5" stroke="#707070" stroke-width="1">
      <ellipse cx="24" cy="18" rx="24" ry="18" stroke="none"/>
      <ellipse cx="24" cy="18" rx="23.5" ry="17.5" fill="none"/>
    </g>
    <g id="Ellipse_36" data-name="Ellipse 36" transform="translate(75 280)" fill="#2ad5d5" stroke="#707070" stroke-width="1">
      <ellipse cx="24" cy="18" rx="24" ry="18" stroke="none"/>
      <ellipse cx="24" cy="18" rx="23.5" ry="17.5" fill="none"/>
    </g>
    <g id="Ellipse_37" data-name="Ellipse 37" transform="translate(75 280)" fill="#2ad5d5" stroke="#707070" stroke-width="1">
      <ellipse cx="24" cy="18" rx="24" ry="18" stroke="none"/>
      <ellipse cx="24" cy="18" rx="23.5" ry="17.5" fill="none"/>
    </g>
    <g id="Ellipse_38" data-name="Ellipse 38" transform="translate(75 280)" fill="#2ad5d5" stroke="#707070" stroke-width="1">
      <ellipse cx="24" cy="18" rx="24" ry="18" stroke="none"/>
      <ellipse cx="24" cy="18" rx="23.5" ry="17.5" fill="none"/>
    </g>
    <g id="Ellipse_39" data-name="Ellipse 39" transform="translate(75 280)" fill="#2ad5d5" stroke="#707070" stroke-width="1">
      <ellipse cx="24" cy="18" rx="24" ry="18" stroke="none"/>
      <ellipse cx="24" cy="18" rx="23.5" ry="17.5" fill="none"/>
    </g>
    <g id="Ellipse_40" data-name="Ellipse 40" transform="translate(75 280)" fill="#2ad5d5" stroke="#707070" stroke-width="1">
      <ellipse cx="24" cy="18" rx="24" ry="18" stroke="none"/>
      <ellipse cx="24" cy="18" rx="23.5" ry="17.5" fill="none"/>
    </g>
    <ellipse id="Ellipse_41" data-name="Ellipse 41" cx="24" cy="18" rx="24" ry="18" transform="translate(40.696 190.67) rotate(41)" fill="#2ad5d5"/>
    <g id="Ellipse_42" data-name="Ellipse 42" transform="translate(146 391)" fill="#2ad5d5" stroke="#707070" stroke-width="1">
      <ellipse cx="29.5" cy="22.5" rx="29.5" ry="22.5" stroke="none"/>
      <ellipse cx="29.5" cy="22.5" rx="29" ry="22" fill="none"/>
    </g>
    <ellipse id="Ellipse_43" data-name="Ellipse 43" cx="24" cy="18" rx="24" ry="18" transform="translate(134 254)" fill="#2ad5d5"/>
    <ellipse id="Ellipse_44" data-name="Ellipse 44" cx="34.5" cy="30.5" rx="34.5" ry="30.5" transform="matrix(0.799, 0.602, -0.602, 0.799, 314.723, 44.166)" fill="#2ad5d5"/>
    <text id="R" transform="translate(280 530)" fill="#151111" font-size="470" font-family="ScriptMTBold, Script MT"><tspan x="0" y="0">R</tspan></text>
  </g>
</svg>
