<svg xmlns="http://www.w3.org/2000/svg" width="221.989" height="49" viewBox="0 0 221.989 49">
  <g id="ravi_brand" data-name="ravi brand" transform="translate(891.989 -37)">
    <g id="Group_2" data-name="Group 2" transform="matrix(0.999, -0.052, 0.052, 0.999, -122.456, -45.372)">
      <path id="Subtraction_1" data-name="Subtraction 1" d="M13,27a12.687,12.687,0,0,1-9.032-3.791A13.665,13.665,0,0,1,.009,14H0V0H13a12.645,12.645,0,0,1,6,1.521A13.542,13.542,0,0,0,12,13.5a13.542,13.542,0,0,0,7,11.979A12.645,12.645,0,0,1,13,27Z" transform="translate(-773 46)" fill="#ff671d"/>
      <path id="Subtraction_2" data-name="Subtraction 2" d="M13,27a12.687,12.687,0,0,1-9.032-3.791A13.665,13.665,0,0,1,.009,14H0V0H13a12.645,12.645,0,0,1,6,1.521A13.542,13.542,0,0,0,12,13.5a13.542,13.542,0,0,0,7,11.979A12.645,12.645,0,0,1,13,27Z" transform="matrix(-0.052, 0.999, -0.999, -0.052, -733.521, 46.72)" fill="#781ae3"/>
      <path id="Subtraction_3" data-name="Subtraction 3" d="M13,27a12.687,12.687,0,0,1-9.032-3.791A13.665,13.665,0,0,1,.009,14H0V0H13a12.645,12.645,0,0,1,6,1.521A13.542,13.542,0,0,0,12,13.5a13.542,13.542,0,0,0,7,11.979A12.645,12.645,0,0,1,13,27Z" transform="matrix(-0.999, -0.052, 0.052, -0.999, -735.72, 85.479)" fill="#d900ad"/>
      <path id="Subtraction_4" data-name="Subtraction 4" d="M13,27a12.687,12.687,0,0,1-9.032-3.791A13.665,13.665,0,0,1,.009,14H0V0H13a12.645,12.645,0,0,1,6,1.521A13.542,13.542,0,0,0,12,13.5a13.542,13.542,0,0,0,7,11.979A12.645,12.645,0,0,1,13,27Z" transform="translate(-774.479 83.28) rotate(-87)" fill="#00c314"/>
    </g>
    <text id="R_Creation" data-name="R&apos;Creation" transform="translate(-846 37)" fill="#fff" font-size="37" font-family="Pristina-Regular, Pristina"><tspan x="0" y="32">R&apos;</tspan><tspan y="32" font-size="26" font-family="SegoePrint, Segoe Print">Creation</tspan></text>
  </g>
</svg>
