<svg xmlns="http://www.w3.org/2000/svg" width="17.944" height="31.685" viewBox="0 0 17.944 31.685">
  <g id="smartphone" transform="translate(-6.87)">
    <path id="Path_4" data-name="Path 4" d="M22.507,0H9.175A2.306,2.306,0,0,0,6.87,2.309v27.07a2.306,2.306,0,0,0,2.305,2.306H22.507a2.308,2.308,0,0,0,2.307-2.306V2.309A2.31,2.31,0,0,0,22.507,0Zm.578,25.672H8.6V3.895H23.085ZM18.932,2.343H12.751V1.669h6.182v.674Zm2.645-.308a.591.591,0,1,1-.591-.59A.591.591,0,0,1,21.577,2.035Zm-2.922,27.19H13.026V27.493h5.629Z"/>
  </g>
</svg>
